# xmcd
#
# Track frame offsets: 
#        150
#        20907
#        34022
#        56857
#        70602
#        88970
#        112322
#        123900
#        138890
#        152457
#        167812
#
# Disc length: 2510 seconds
#
# Revision: 3
# Processed by: cddbd v1.5.2PL0 Copyright (c) Steve Scherf et al.
# Submitted via: ExactAudioCopy v0.99pb5
#
DISCID=9809cc0b
DTITLE=Omar And The Howlers - Monkey Land
DYEAR=1990
DGENRE=Blues
TTITLE0=Monkey Land
TTITLE1=Tonight I Think Of You
TTITLE2=Big Town Shakedown
TTITLE3=She's A Woman
TTITLE4=Fire In The Jungle
TTITLE5=Night Shadows
TTITLE6=Modern Man
TTITLE7=Loud Mouth Woman
TTITLE8=Dirty People
TTITLE9=Ding Dong Clock
TTITLE10=Next Big Thing
EXTD=YEAR: 1990
EXTT0=
EXTT1=
EXTT2=
EXTT3=
EXTT4=
EXTT5=
EXTT6=
EXTT7=
EXTT8=
EXTT9=
EXTT10=
PLAYORDER=
